# xmcd CD database file
#
# Track frame offsets:
#	150
#	2778
#	18849
#	32907
#	44877
#	56438
#	71983
#	89384
#	114438
#	135810
#	156354
#	177089
#	194432
#	206626
#	221856
#	239589
#	254929
#
# Disc length: 3662 seconds
#
# Revision: 1
# Processed by: cddbd v1.5.2PL0 Copyright (c) Steve Scherf et al.
# Submitted via: CDex 1.51
#
DISCID=020e4c11
DTITLE=BOOWY - "GIGS" Case Of BOOWY Complete Disc1
DYEAR=2007
DGENRE=Rock
TTITLE0=Introduction
TTITLE1=Image Down
TTITLE2=Baby Action
TTITLE3=Rats
TTITLE4=Moral
TTITLE5=Give It To Me
TTITLE6="16"
TTITLE7=This Moment
TTITLE8=わがままジュリエット
TTITLE9=Bad Feeling
TTITLE10=Like A Child
TTITLE11=Oh! My Jully Part1
TTITLE12=Working Man
TTITLE13=B・Blue
TTITLE14=Teenage Emotion
TTITLE15=London Game
TTITLE16=No. New York
EXTD=YEAR: 2007
EXTT0=
EXTT1=
EXTT2=
EXTT3=
EXTT4=
EXTT5=
EXTT6=
EXTT7=
EXTT8=
EXTT9=
EXTT10=
EXTT11=
EXTT12=
EXTT13=
EXTT14=
EXTT15=
EXTT16=
PLAYORDER=
